<?xml version="1.0" encoding="utf-8"?>
<!-- Generator: Adobe Illustrator 23.1.0, SVG Export Plug-In . SVG Version: 6.00 Build 0)  -->
<svg version="1.1" xmlns="http://www.w3.org/2000/svg" xmlns:xlink="http://www.w3.org/1999/xlink" x="0px" y="0px"
	 viewBox="0 0 371 165" style="enable-background:new 0 0 371 165;" xml:space="preserve">
<style type="text/css">
	.st0{fill:#EAFF22;}
	.st1{fill:url(#SVGID_1_);}
	.st2{display:none;}
	.st3{display:inline;}
	.st4{enable-background:new    ;}
	.st5{display:inline;fill:#231F20;}
	.st6{clip-path:url(#SVGID_3_);fill:#231F20;}
	.st7{fill:none;stroke:#000000;stroke-width:2;stroke-miterlimit:10;}
	.st8{fill:#32BAEA;}
	.st9{fill:#41F797;}
	.st10{display:inline;fill:#EAFF22;}
</style>
<g id="BG">
	<rect x="-1954" y="-8896" class="st0" width="1920" height="9509"/>
</g>
<g id="The_Party">
</g>
<g id="Drift">
	
		<image style="overflow:visible;" width="398" height="485" xlink:href="../../../../../Desktop/Wittle - Website Design/Assets Game/Body.png"  transform="matrix(1.0356 0 0 1.0356 -1710 -4929)">
	</image>
	<linearGradient id="SVGID_1_" gradientUnits="userSpaceOnUse" x1="-2284" y1="-6233" x2="-2284" y2="-6233">
		<stop  offset="0" style="stop-color:#FFFFFF"/>
		<stop  offset="1" style="stop-color:#000000"/>
	</linearGradient>
	<path class="st1" d="M-2284-6233"/>
	
		<image style="overflow:visible;" width="588" height="656" xlink:href="../../../../../Desktop/Wittle - Website Design/Assets Game/Head-Floating.png"  transform="matrix(1.4085 0 0 1.4085 -1494 -6470)">
	</image>
	
		<image style="overflow:visible;" width="565" height="327" xlink:href="../../../../../Desktop/Wittle - Website Design/Assets Game/Driftt-Logo.png"  transform="matrix(1.5974 0 0 1.5974 -1446 -5910)">
	</image>
	<rect x="-1368" y="-5299.4" style="fill:none;" width="748.1" height="351.4"/>
	<text transform="matrix(1 0 0 1 -1345.6038 -5251.6201)"><tspan x="0" y="0" style="font-family:'GillSansNova-UltraLight'; font-size:70px;">Help Brian through his day </tspan><tspan x="-14.4" y="84" style="font-family:'GillSansNova-UltraLight'; font-size:70px;">by navigate his disembodied </tspan><tspan x="-5.8" y="168" style="font-family:'GillSansNova-UltraLight'; font-size:70px;">head around lifes obstacles. </tspan></text>
	<g>
		<rect x="-1117" y="-4772.9" width="257.9" height="257.9"/>
		
			<text transform="matrix(1 0 0 1 -1040.0703 -4642.0742)" class="st0" style="font-family:'FontAwesome5Pro-Regular'; font-size:82.5851px;"></text>
		
			<text transform="matrix(1 0 0 1 -1036.1113 -4590.2793)" class="st0" style="font-family:'GillSansNova-UltraLight'; font-size:44.9974px;">PLAY</text>
	</g>
	<g>
		<rect x="-791.9" y="-4772.9" width="257.9" height="257.9"/>
		
			<text transform="matrix(1 0 0 1 -707.832 -4642.0742)" class="st0" style="font-family:'FontAwesome5Brands-Regular'; font-size:82.5851px;"></text>
		
			<text transform="matrix(1 0 0 1 -747.4385 -4590.2793)" class="st0" style="font-family:'GillSansNova-UltraLight'; font-size:44.9974px;">WATCH</text>
	</g>
	<g>
		<rect x="-467.5" y="-4769.9" class="st2" width="257.9" height="257.9"/>
		<text transform="matrix(1 0 0 1 -372.5801 -4602.7793)" style="font-family:'FontAwesome5Pro-Regular'; font-size:210.9483px;"></text>
		<text transform="matrix(1 0 0 1 -395.7102 -4510.3174)" style="font-family:'GillSansNova-UltraLight'; font-size:44.9974px;">MORE</text>
	</g>
	
		<image style="overflow:visible;" width="512" height="512" xlink:href="../../../../../Desktop/Wittle - Website Design/Assets Game/Barkdog2.PNG"  transform="matrix(0.9817 0.1902 -0.1902 0.9817 -351.6219 -5781)">
	</image>
	
		<image style="overflow:visible;" width="512" height="512" xlink:href="../../../../../Desktop/Wittle - Website Design/Assets Game/Photo2.PNG"  transform="matrix(0.832 0 0 0.8125 -1954 -6319)">
	</image>
	
		<image style="overflow:visible;" width="512" height="512" xlink:href="../../../../../Desktop/Wittle - Website Design/Assets Game/Razor2.PNG"  transform="matrix(0.7195 8.363234e-02 -9.923978e-02 0.8538 -398.1892 -6573)">
	</image>
	
		<image style="overflow:visible;" width="512" height="512" xlink:href="../../../../../Desktop/Wittle - Website Design/Assets Game/Burner2.PNG"  transform="matrix(0.7685 0.2385 -0.2459 0.7924 -1921.093 -5652)">
	</image>
</g>
<g id="Partners">
	<rect x="-1699" y="-201" style="fill:none;" width="1361" height="78"/>
	<text transform="matrix(1 0 0 1 -1327.7822 -134.4004)" class="st2" style="font-family:'Manteiga-Gorda'; font-size:90px;">Our Partners</text>
	<g class="st2">
		<g id="Long_White_2_" class="st3">
		</g>
		<g id="Tall_White_2_" class="st3">
			<circle class="st2" cx="183" cy="83.5" r="152.6"/>
			<g class="st4">
				<path d="M92.3,87.9c-0.9,0.2-2.2,0.5-4,0.7c-1.8,0.2-3.6,0.3-5.4,0.3c-1.8,0-3.4-0.1-4.7-0.4c-1.4-0.3-2.5-0.8-3.4-1.5
					c-0.9-0.7-1.6-1.7-2.1-2.9c-0.5-1.2-0.7-2.9-0.7-4.9V24.3c0-1.6,0.4-2.9,1.3-3.8c0.9-0.9,2.1-1.6,3.7-2.2c2.6-0.9,5.7-1.6,9-2
					c3.4-0.4,6.8-0.6,10.2-0.6c10.7,0,18.9,2.3,24.6,6.9c5.7,4.6,8.5,10.8,8.5,18.7c0,3.8-0.6,7.3-1.8,10.3c-1.2,3.1-3,5.7-5.4,7.9
					c-2.4,2.2-5.4,3.9-9,5.1c-3.6,1.2-7.8,1.8-12.5,1.8h-8.3V87.9z M98.3,50.4c3.3,0,5.8-0.8,7.5-2.3c1.7-1.5,2.6-3.8,2.6-6.9
					c0-3-0.9-5.2-2.7-6.8c-1.8-1.6-4.5-2.4-8-2.4c-1.2,0-2.3,0-3.1,0.1c-0.8,0-1.7,0.1-2.5,0.3v18.1H98.3z"/>
				<path d="M150.5,88.7c-3.3,0-6-1-7.9-2.9c-1.9-1.9-2.9-4.6-2.9-7.9V17.5c0.9-0.2,2.2-0.4,4.1-0.6c1.9-0.3,3.7-0.4,5.4-0.4
					c1.8,0,3.4,0.1,4.7,0.4c1.4,0.3,2.5,0.8,3.4,1.5c0.9,0.7,1.6,1.7,2.1,2.9c0.5,1.2,0.7,2.9,0.7,4.9v46.1h26.7
					c0.5,0.9,1,2,1.5,3.4c0.5,1.4,0.7,2.9,0.7,4.5c0,3.1-0.7,5.3-2,6.6c-1.3,1.3-3.1,1.9-5.2,1.9H150.5z"/>
				<path d="M215.7,19.8c1.3-0.8,3.3-1.5,6-2.2c2.7-0.7,5.4-1,8.1-1c3.9,0,7.3,0.6,10.3,1.7c3,1.1,4.9,2.9,5.8,5.3
					c1.4,4,2.9,8.7,4.5,14.1s3.3,10.9,4.9,16.6c1.6,5.7,3.2,11.4,4.8,16.9c1.6,5.6,2.9,10.5,4.1,14.8c-0.9,1.1-2.3,2-4.2,2.6
					c-1.9,0.7-4.1,1-6.6,1c-1.9,0-3.4-0.2-4.7-0.5c-1.3-0.3-2.3-0.8-3.1-1.4c-0.8-0.6-1.5-1.4-2-2.4c-0.5-1-1-2.2-1.3-3.5l-2.1-8
					h-21.1c-0.6,2.3-1.2,4.7-1.9,7.2c-0.6,2.5-1.2,4.9-1.9,7.2c-1.1,0.4-2.2,0.7-3.4,1c-1.2,0.3-2.7,0.4-4.4,0.4c-4,0-6.9-0.7-8.8-2
					c-1.9-1.4-2.9-3.2-2.9-5.7c0-1.1,0.2-2.2,0.5-3.3c0.3-1.1,0.7-2.4,1-3.8c0.5-2.1,1.3-4.7,2.3-7.8c1-3.1,2-6.5,3.2-10.1
					c1.2-3.6,2.4-7.3,3.7-11.1c1.3-3.8,2.6-7.4,3.7-10.8c1.2-3.4,2.2-6.4,3.2-9C214.4,23.2,215.1,21.2,215.7,19.8z M229.7,34.8
					c-1.1,3.3-2.3,6.9-3.7,10.9c-1.4,4-2.6,8.1-3.7,12.2h14.5c-1.1-4.2-2.2-8.3-3.3-12.3c-1.1-4-2.2-7.6-3.1-10.8H229.7z"/>
				<path d="M294.1,87.9c-0.9,0.2-2.2,0.5-4,0.7c-1.8,0.2-3.6,0.3-5.4,0.3c-1.8,0-3.4-0.1-4.7-0.4c-1.4-0.3-2.5-0.8-3.4-1.5
					c-0.9-0.7-1.6-1.7-2.1-2.9c-0.5-1.2-0.7-2.9-0.7-4.9V17.7c0.9-0.2,2.2-0.4,4.1-0.6c1.9-0.3,3.7-0.4,5.4-0.4
					c1.8,0,3.4,0.1,4.7,0.4c1.4,0.3,2.5,0.8,3.4,1.5c0.9,0.7,1.6,1.7,2.1,2.9c0.5,1.2,0.7,2.9,0.7,4.9V87.9z"/>
			</g>
			<g class="st4">
				<path d="M95.4,126.9H75.6v19h-1.4v-38.7h24v1.4H75.6v16.7h19.8V126.9z"/>
				<path d="M121.1,134.4h-18.9l-4.3,11.6h-1.6l14.5-38.7h1.8l14.5,38.7h-1.6L121.1,134.4z M102.7,132.9h17.9l-8.9-24L102.7,132.9z"
					/>
				<path d="M159.5,134.1c-0.4,4-1.7,7-4.1,9.2c-2.4,2.1-5.6,3.2-9.7,3.2c-2.7,0-5.2-0.7-7.3-2.1c-2.1-1.4-3.8-3.4-4.9-5.9
					c-1.2-2.6-1.8-5.5-1.8-8.8v-6c0-3.3,0.6-6.2,1.7-8.8c1.2-2.6,2.8-4.6,4.9-6c2.1-1.4,4.6-2.1,7.3-2.1c4,0,7.3,1.1,9.6,3.2
					s3.8,5.2,4.1,9.1h-1.4c-0.4-3.6-1.6-6.3-3.7-8.1s-4.9-2.8-8.6-2.8c-3.8,0-6.8,1.4-9.1,4.3c-2.3,2.8-3.5,6.6-3.5,11.4v5.7
					c0,3,0.5,5.7,1.5,8.1c1,2.3,2.5,4.2,4.4,5.5c1.9,1.3,4.1,2,6.6,2c3.7,0,6.6-0.9,8.7-2.7c2.1-1.8,3.3-4.6,3.7-8.2H159.5z"/>
				<path d="M193.4,108.7h-14.1v37.2h-1.4v-37.2h-14.1v-1.4h29.6V108.7z"/>
				<path d="M226.9,129.5c0,3.3-0.6,6.3-1.8,8.9c-1.2,2.6-2.9,4.6-5.1,6c-2.2,1.4-4.8,2.1-7.6,2.1c-4.4,0-7.9-1.5-10.6-4.6
					c-2.7-3.1-4-7.3-4-12.5v-5.6c0-3.3,0.6-6.3,1.8-8.9c1.2-2.6,2.9-4.6,5.1-6c2.2-1.4,4.8-2.1,7.6-2.1c2.9,0,5.4,0.7,7.7,2.1
					c2.2,1.4,3.9,3.4,5.1,6c1.2,2.6,1.8,5.5,1.8,8.9V129.5z M225.4,123.6c0-4.7-1.2-8.4-3.6-11.2c-2.4-2.8-5.6-4.2-9.6-4.2
					c-4,0-7.2,1.4-9.5,4.2c-2.4,2.8-3.6,6.6-3.6,11.5v5.7c0,3.1,0.5,5.8,1.6,8.2c1.1,2.4,2.6,4.2,4.6,5.5c2,1.3,4.3,1.9,7,1.9
					c4,0,7.2-1.4,9.6-4.2c2.4-2.8,3.5-6.7,3.5-11.5V123.6z"/>
				<path d="M250.4,129.4H237v16.5h-1.4v-38.7h12.3c3.9,0,7,1,9.3,3c2.3,2,3.4,4.7,3.4,8.2c0,2.6-0.8,4.9-2.5,6.9s-3.7,3.2-6.3,3.7
					l10.3,16.5v0.4h-1.5L250.4,129.4z M237,127.9h12.2c3,0,5.4-0.9,7.2-2.7c1.8-1.8,2.7-4.1,2.7-6.8c0-3-1-5.4-3-7.1
					c-2-1.7-4.8-2.6-8.3-2.6H237V127.9z"/>
				<path d="M280.9,129.9l13.5-22.7h1.8l-14.6,24v14.7h-1.4v-14.7l-14.6-24h1.9L280.9,129.9z"/>
			</g>
		</g>
	</g>
	<g class="st2">
		<g class="st3">
			<g>
				<path d="M116.3,86.7c-0.6-4.9-8-1.3-9.4,0.9c-2.7,4.2-4.9,8.6-6.4,13.5c-0.3,1.1-0.5,2-0.6,3.1c-2.7-6.4-2.2-15.1-2-21
					c0.2-5-8.3-1.6-9.7,0.6c-3.5,6.1-5.2,11.9-6.4,18.1c-1.6-6-2-12.7-2.8-16.8c-0.3-1.7-5.5-4.9-6.4-2.5
					c-4.2,9.7-2.2,30.6,7.9,36.9c3.5,2.2,9-0.3,9.6-4.4c0.2-1.6,0.3-3,0.6-4.4c1.6,3.6,3.8,6.9,7.2,9.1c3,1.9,6.8-1.1,8.5-3.5
					c1.1-1.6,1.7-3.1,2.4-4.9c1.3,3.1,3.3,5.8,6.9,7.5c3.6,1.7,11.5-4.6,7.4-7.9C115.2,105.3,117.2,95.2,116.3,86.7z"/>
				<path d="M147.7,81.1c-6.4-2.2-10.8-0.2-13.8,3.9c-0.2-0.5-0.3-0.8-0.5-1.3c-5.5-12.4-7.5-25.3-11.9-37.9c-0.5-1.3-5.8-4.2-6.3-2
					c-5,23.7,11.3,43.4,13.2,65.8c0,1.6,0.2,3.1,0.2,4.4c0.5,5.5,10.4,0.9,10.4-3.6c0-2.8-0.2-5.5-0.5-8.2c0-4.9,0.5-9.9,2.8-13.5
					c-0.2,0.3,2.8,9.3,2.8,11c0.3,4.9,0.2,11.3-5,13.4c-4.9,1.9-6.1,10.2,0.6,8.6c9.4-2.2,14.1-11.3,14.8-20.4
					C155.2,95.4,154.9,83.4,147.7,81.1z"/>
				<path d="M187.4,85.9c-6-1.1-13.4-1.6-19.2,1.1c-0.2,0-0.2-0.2-0.2-0.2c-1.7-1.1-4.4-1.1-6.3-0.2c-0.9,0.5-1.3,1.1-1.3,1.7h-0.2
					c0.2,1.7,0.3,3.5,0.6,5.2c-3.9,7.1-0.2,15.4,2,23.2c1.4,5.3,9.7,0.9,10.4-2.8c0.8-4.2,0-8.5-0.6-12.9c-0.3-1.7-0.3-3.6-0.6-5.7
					c0.6-0.2,1.4-0.3,1.7-0.3c2.5-0.2,5.2,0.3,7.7,1.1C187.7,98.3,194.5,87.3,187.4,85.9z"/>
				<path d="M214.6,107.8c-2,4.2-7.9,5-11.6,3.1c-3.6-1.7-3.5-7.9-3-11c0-0.5,0.2-0.8,0.2-1.3c8-0.3,16.5-3.9,16.2-11.9
					c-0.3-5.3-7.2-7.2-11.3-6.9c-5.8,0.3-9.9,6-12.3,10.7c-0.5,0.8-0.8,1.7-1.1,2.5c-1.7,1.1-2.8,2.5-1.3,3.6
					c-2.4,8-2.4,18.1,4.2,22.9c10.5,7.9,26.9-1.3,30.2-12.6C226.2,101.3,216,104.5,214.6,107.8z M205,87.8c0.8,2.8-0.2,4.1-2.8,3.8
					c-0.2,0-0.2,0-0.3,0c0.2-0.6,0.5-1.1,0.6-1.7C203.1,88.7,203.8,87.5,205,87.8z"/>
				<path d="M273.7,99.6c-5.7,6.1-15.4,14.5-21.5,4.4c-2.5-4.1-3.5-9.1-4.2-14c-0.2-2.4-0.5-4.4-0.8-5.8c-0.2-0.5-0.3-0.8-0.5-1.1
					c-0.6-1.9-3.1-3-6-1.6c-7.9,3.8-12.1,9.4-14,17.9c-1.1,4.9-1.4,17.3,4.6,19.6c6.3,2.5,10.4-0.3,13-5.3c1.4,1.6,3.1,3.1,5.2,4.2
					c11.9,6.4,25.8-7.4,32.4-15.6C286.5,96.6,277.1,95.8,273.7,99.6z M235.8,96.8v2.8c1.6,1.7,1.5,3.5,1.6,5.2v0.5
					C236.4,102.6,236.6,99.6,235.8,96.8z"/>
				<path d="M293.6,84.7c4.9-1.6,9.6-3.1,14-5.3c5.7-2.8,6-13.7-1.6-10.1c-4.7,2.2-9.4,4.2-14.3,6.3c-1.3-6.3-2.8-12.9-6.6-17
					c-1.6-1.7-9-1.4-8.5,1.9c0.9,6.6,2.7,13.2,4.2,19.8c-7.5,3.5-14.8,7.4-21.4,12.7c-5.5,4.6,3.5,6.3,7.1,3.5
					c4.7-3.6,10.4-6.1,16.2-8.2c2.2,8.6,5.8,17.4,4.9,26.4c-0.6,6.1,9.6,2.4,10.5-1.9c1.9-9.3-1.9-18.1-4.2-26.9
					C293.8,85.5,293.6,85,293.6,84.7z"/>
				<path d="M340.3,105.6c-2.4-1.7-5.5-0.2-7.4,1.4c-7.9,6-15.6,1.4-17.4-7.7c-0.2-0.5-0.2-0.9-0.2-1.6c7.9,0.9,17.6-2.5,18.2-10.4
					c0.3-4.2-4.6-7.7-8.2-8.5c-6.6-1.6-12.7,2.8-16.5,7.9c-6.1,8.2-5.5,21.5,2.2,28.4c9.3,8.3,21.8,3.5,29.2-4.7
					C341.4,109.4,341.8,106.8,340.3,105.6z M319.2,87.4c1.6-0.8,5.5-0.2,4.1,2.4c-1.6,2.7-4.6,3.1-7.7,3
					C316.1,90.3,317.2,88.2,319.2,87.4z"/>
				<path d="M50.3,73.8c4.1-1.6,8.3-2.5,13.2-3.5c5.2-1.1,9.7-11.9,2.4-10.4c-4.6,0.9-8.8,1.9-12.7,3.1c-1.1-0.3-2.4,0-4.1,0.9
					c-1.3,0.6-2.4,1.4-3.6,2c-3.9,1.9-7.5,4.2-11.3,7.5c-3.3,3-2.5,7.5,0.3,8.3c-1.3,3.1-2.2,6.3-3,9.6h-0.2c-3,0.6-5.7,2.7-6.4,5.8
					c-0.6,2.5,1.3,5,4.1,4.6c0.5-0.2,0.9-0.2,1.4-0.3c0,3.5,0.2,6.9,0.8,10.1c3.6,19.5,32.5,13.7,35.8-3c1.6-7.4-9.4-4.1-10.5,1.3
					c-1.1,5.2-9.9,4.4-12.7,1.7c-3-3-2.7-8.8-2.5-12.6c9.3-2.5,18.4-6.1,25.4-12.6c5.7-5,0-11.5-5.8-6.4c-5,4.6-11.8,7.1-18.5,9
					C43.7,83.2,46,77.4,50.3,73.8z"/>
			</g>
		</g>
	</g>
	<g id="Telus" class="st2">
		<polygon class="st5" points="150.3,79.8 170.1,79.8 170.1,74 158.3,74 158.3,67.6 168.1,67.6 168.1,62.1 158.3,62.1 158.3,56.8 
			170.1,56.8 170.1,51.2 150.3,51.2 150.3,79.8 		"/>
		<polygon class="st5" points="205,74.1 192.7,74.1 192.7,51.2 184.5,51.2 184.5,79.8 205,79.8 205,74.1 		"/>
		<path class="st5" d="M270.4,62.1c-5.5-1.2-7.4-1.4-7.4-3.6c0-2,2.7-2.7,4.3-2.7c2.5,0,5.5,0.6,8.5,2.1l2.2-5.3
			c-3.1-1.7-7.1-2.4-10.9-2.4c-7.6,0-12.6,3.1-12.8,9c-0.2,5.4,4.2,7.5,8.3,8.3c3.9,0.8,7.9,1.5,8,3.8c0.1,2.1-1.9,3.1-5.5,3.1
			c-3.4,0-6.5-1.1-9.7-2.4l-1.9,5.7c3.7,1.6,7.4,2.4,11.3,2.4c5.4,0,9.3-0.8,12.2-3.5c2-1.9,2.7-4.1,2.7-6.2
			C279.5,66.1,276.7,63.5,270.4,62.1L270.4,62.1z"/>
		<polygon class="st5" points="113.9,56.8 122.3,56.8 122.3,79.8 130.4,79.8 130.4,56.8 138.8,56.8 138.8,51.2 113.9,51.2 
			113.9,56.8 		"/>
		<path class="st5" d="M241.1,70.2v-19h-8.4v18.1c0,1.4,0,1.8-0.1,2.4c-0.3,1.7-1.9,2.7-4.6,2.8c-2,0-3.4-0.6-4.1-1.6
			c-0.3-0.5-0.5-1.5-0.5-3V51.2H215v19.7c0,2.7,0.4,4,1.6,5.5c2,2.5,6,3.9,11.4,3.9c0.1,0,0.1,0,0.2,0c0,0,0.1,0,0.1,0
			c7.3,0,11.1-2.8,12.2-5.5C241,73.5,241.1,72.9,241.1,70.2L241.1,70.2z"/>
		<path class="st5" d="M64.8,57.5l5.8-1.4l0.1,0v0l0.1,0c0.5-0.1,0.9-0.2,1.4-0.3c-1.8,1.8-4.1,4-7,6.4c-3.1,2.5-5.3,4-9.8,6.6
			C58.1,64.7,61.4,60.9,64.8,57.5L64.8,57.5z M78.1,46c0.7-0.5,0.9-0.2,0.7,0.4c-0.2,0.5-0.8,2.3-3.3,5.4l-5,1v0l-0.2,0l-1,0.2
			C72.9,49.8,76,47.4,78.1,46L78.1,46z M94.5,71.4l-0.2,0.1c-3.6,2.1-21.1,12.5-32.4,15.6c-5.8,1.6-10.2,0.7-11.9-1.6
			c-0.6-0.8-0.9-1.8-0.9-3c0-2.3,1.1-5.2,3.2-8.4c1.9-1.1,3.7-2.2,5.3-3.2c7.1-4,15-10.5,19.8-16.5c26.7-6.6,40.3-10.5,40.4-10.5
			c0.2,0,0.2-0.2,0.2-0.3c0-0.1-0.2-0.2-0.3-0.2l-37.8,7.5c1.3-2.1,2.1-4,2.2-5.7c0-0.1,0-0.1,0-0.2c0-0.6-0.3-1.3-0.8-1.8
			c-0.5-0.5-1.2-0.8-1.9-0.7C77,42.6,72.8,46,70.5,48c-2.4,2.1-4.7,4.2-6.8,6.2l-42.9,9.2l-1.9,5.2l40.3-9.8
			C55.2,63,52,67,49.3,71.2C38.8,76.8,25.5,82.5,12.2,87l-0.3,0.1L9.3,94l1.5-0.6c8.4-3.2,22.5-9.2,35.2-15.9
			c-0.7,1.9-1.1,3.7-1.1,5.3c0,1.2,0.2,2.3,0.6,3.3c0.8,2,2.4,3.5,4.6,4.4c3.3,1.3,7.7,1.3,12.8-0.2c13-3.9,28.4-16,31.7-18.4
			l0.1-0.1c0.1-0.1,0.1-0.2,0.1-0.3C94.8,71.4,94.6,71.4,94.5,71.4L94.5,71.4z"/>
		<polygon class="st5" points="198.2,126 199.9,126 199.9,111.9 214.6,111.9 214.6,110.3 199.9,110.3 199.9,98.8 216.2,98.8 
			216.2,97.3 198.2,97.3 198.2,126 		"/>
		<path class="st5" d="M233.5,116.5c0,5.1-2.8,8.7-7.4,8.7c-5.6,0-5.9-4.6-5.9-6.8v-13.1h-1.5v12.8c0,2.5,0.1,8.4,7.4,8.4
			c3.2,0,6.4-1.8,7.4-4.9h0.1v4.4h1.5v-20.7h-1.5V116.5L233.5,116.5z"/>
		<path class="st5" d="M248.5,104.9c-3.2,0-6.4,1.8-7.4,4.9H241v-4.4h-1.5V126h1.5v-11.2c0-5.1,2.8-8.7,7.5-8.7
			c5.6,0,5.9,4.6,5.9,6.8V126h1.5v-12.8C255.9,110.7,255.8,104.9,248.5,104.9L248.5,104.9z"/>
		<g class="st3">
			<defs>
				<rect id="SVGID_2_" x="9.3" y="30.6" width="347.3" height="105.7"/>
			</defs>
			<clipPath id="SVGID_3_">
				<use xlink:href="#SVGID_2_"  style="overflow:visible;"/>
			</clipPath>
			<path class="st6" d="M268.7,125.2c-5.3,0-7.7-4.6-7.7-9.5c0-5,2.2-9.5,7.7-9.5c5.3,0,7.7,4.7,7.7,9.5
				C276.4,120.5,273.9,125.2,268.7,125.2L268.7,125.2z M276.4,110L276.4,110c-1.2-3.3-4.3-5.1-7.7-5.1c-6.2,0-9.2,4.8-9.2,10.9
				c0,5.7,2.7,10.8,8.9,10.8c3.7,0,6.2-1.7,7.9-4.9h0.1v4.4h1.5V97.3h-1.5V110L276.4,110z"/>
			<path class="st6" d="M315,54.3c-1.4,1.3-3.5,3.3-6.6,6.4C291,78.4,287.2,95.9,297.3,113c2.5,4.2,9.5,9.8,11.3,11.9v0
				c0,0,4.6,5.2,2.2,11.4c0,0,4.2-6.7,4.2-6.7c10.2-15.9,19.4-54.4,19.7-83.1c1.5,41.5-5.4,64.9-14.2,84.4
				c30.3-2.5,54.8-38.5,13.6-100.4C329,39.9,325.9,43.8,315,54.3L315,54.3z"/>
		</g>
		<polygon class="st5" points="349,38.2 349.7,38.2 349.7,33.8 351.3,33.8 351.3,33.2 347.4,33.2 347.4,33.8 349,33.8 349,38.2 		
			"/>
		<polygon class="st5" points="355.8,33.2 354.2,37.4 352.7,33.2 351.8,33.2 351.8,38.2 352.4,38.2 352.4,34.1 352.4,34.1 354,38.2 
			354.5,38.2 356,34.1 356,34.1 356,38.2 356.7,38.2 356.7,33.2 355.8,33.2 		"/>
	</g>
	
		<image style="display:none;overflow:visible;" width="1000" height="312" id="CAMH" xlink:href="../../../../../Desktop/Wittle - Website Design/Assets Partners/camh-logo-purple-1000.png"  transform="matrix(0.3085 0 0 0.3085 28.7495 35.3738)">
	</image>
	<g>
		<g class="st4">
			<path d="M336.9,135.8v1.1h-2.3v6.1h-1.3v-6.1H331v-1.1H336.9z"/>
			<path d="M339.5,135.8l2,5.7h0l1.9-5.7h1.8v7.2H344v-5.6h0l-2,5.6h-1l-2-5.6h0v5.6h-1.2v-7.2H339.5z"/>
		</g>
		<g id="Boost_1_">
			<path d="M313,124v9.3c0,0.7-0.3,1.3-0.8,1.9c-0.5,0.5-1.1,0.8-1.8,0.8h-7.8c-0.7,0-1.3-0.3-1.8-0.8s-0.8-1.2-0.8-1.9V90.7
				c0-0.7,0.3-1.4,0.8-1.9s1.2-0.8,1.8-0.8l7.7,0c0.6,0,1.3,0.2,1.7,0.7c0.6,0.5,0.9,1.2,0.9,2v11.6C313,102.3,313,123.8,313,124z"
				/>
			<path d="M319,105h9.3c0.7,0,1.4,0.3,1.9,0.8c0.5,0.5,0.8,1.2,0.8,2v8.4c0,0.7-0.3,1.3-0.8,2c-0.5,0.5-1.2,0.8-1.9,0.8h-42.6
				c-0.7,0-1.4-0.3-1.9-0.8c-0.5-0.5-0.8-1.2-0.8-2v-8.5c0-0.6,0.2-1.2,0.6-1.7c0.5-0.7,1.2-1.1,2.1-1.1h11.6
				C297.2,105,318.8,105,319,105z"/>
			<path d="M124.3,120.5c0,4.3-1.5,7.8-4.6,10.9c-3.1,3-6.7,4.6-10.9,4.6H85.7c-0.7,0-1.4-0.3-1.9-0.8c-0.5-0.5-0.8-1.2-0.8-1.9
				V90.7c0-0.7,0.3-1.4,0.8-1.9c0.5-0.5,1.2-0.8,1.9-0.8h23.1c4.3,0,7.9,1.5,10.9,4.6c3.1,3.1,4.6,6.6,4.6,10.9c0,3.2-0.9,6-2.7,8.5
				C123.4,114.6,124.3,117.5,124.3,120.5z M97,105.4c0,0.5,0.2,0.6,0.6,0.6h11.1c0.6,0,1.2-0.3,1.6-0.7c0.5-0.5,0.6-1.1,0.6-1.8
				s-0.3-1.3-0.6-1.8c-0.5-0.5-0.9-0.7-1.6-0.7H97.6c-0.4,0-0.6,0.2-0.6,0.6V105.4z M97,122.4c0,0.5,0.2,0.6,0.6,0.6h11.1
				c0.6,0,1.2-0.3,1.6-0.7c0.5-0.5,0.6-1.1,0.6-1.8s-0.3-1.3-0.6-1.8c-0.5-0.5-0.9-0.7-1.6-0.7H97.6c-0.4,0-0.6,0.2-0.6,0.6V122.4z"
				/>
			<path d="M153.2,135.9c-6.7,0-12.4-2.4-17.1-7.1c-4.7-4.7-7.1-10.4-7.1-17.1s2.4-12.3,7.1-17.1c4.7-4.7,10.4-7.1,17.1-7.1
				s12.4,2.4,17.1,7.1c4.7,4.7,7.1,10.4,7.1,17.1c0,6.7-2.4,12.3-7.1,17.1C165.5,133.6,159.8,135.9,153.2,135.9z M153.2,101
				c-3,0-5.5,1-7.6,3.1s-3.1,4.7-3.1,7.6c0,3,1,5.5,3.1,7.6s4.6,3.1,7.6,3.1s5.5-1,7.6-3.1s3.1-4.7,3.1-7.6c0-3-1-5.5-3.1-7.6
				C158.6,102.1,156.1,101,153.2,101z"/>
			<path d="M205.5,135.9c-6.7,0-12.4-2.4-17.1-7.1c-4.7-4.7-7.1-10.4-7.1-17.1s2.4-12.3,7.1-17.1c4.7-4.7,10.4-7.1,17.1-7.1
				s12.4,2.4,17.1,7.1c4.7,4.7,7.1,10.4,7.1,17.1c0,6.7-2.4,12.3-7.1,17.1C217.9,133.6,212.2,135.9,205.5,135.9z M205.5,101
				c-3,0-5.5,1-7.6,3.1s-3.1,4.7-3.1,7.6c0,3,1,5.5,3.1,7.6s4.6,3.1,7.6,3.1s5.5-1,7.6-3.1s3.1-4.7,3.1-7.6c0-3-1-5.5-3.1-7.6
				C211,102.1,208.5,101,205.5,101z"/>
			<path d="M249,118.2c-4.3,0-8-1.5-11.1-4.6c-3-3-4.5-6.7-4.5-11.1c0-4.3,1.6-7.9,4.6-11c3-3,6.8-4.5,11.1-4.5l24.2,0
				c0.6,0,1.2,0.2,1.7,0.6c0.6,0.5,1,1.2,1,2.1v8.5c0,0.6-0.2,1.2-0.6,1.7c-0.6,0.6-1.2,1-2.1,1h-24.8c-0.6,0-1.1,0.2-1.5,0.6
				s-0.6,0.9-0.6,1.5c0,0.5,0.3,1,0.7,1.3c0.4,0.4,0.9,0.5,1.4,0.5h14.5c4.3,0,7.9,1.5,11,4.6c3,3,4.5,6.7,4.5,11
				c0,4.2-1.6,7.8-4.6,10.8c-3.1,3-6.7,4.5-11,4.5h-24.1c-0.7,0-1.4-0.3-1.9-0.8s-0.8-1.2-0.8-1.9v-8.6c0-0.6,0.2-1.2,0.6-1.7
				c0.5-0.6,1.2-1,2.1-1h24.4c0.6,0,1-0.2,1.5-0.6c0.4-0.4,0.6-0.9,0.5-1.5c0-0.5-0.2-1-0.6-1.3c-0.4-0.4-0.9-0.5-1.4-0.5
				C263.1,118.2,249,118.2,249,118.2z"/>
		</g>
		<g id="Maker_1_">
			<path d="M43.2,53.3C43,53,42.8,53,42.5,53.1S42,53.4,42,53.7v19.6c0,0.7-0.3,1.3-0.8,1.9c-0.5,0.5-1.1,0.8-1.9,0.8h-7.6
				c-0.7,0-1.4-0.3-1.9-0.8C29.3,74.6,29,74,29,73.3V30.7c0-0.7,0.3-1.4,0.8-1.9c0.5-0.5,1.2-0.8,1.9-0.8h9c0.9,0,1.7,0.4,2.2,1.1
				L54,44.9c0.1,0.2,0.3,0.3,0.6,0.3c0.2,0,0.4-0.1,0.5-0.3l11.1-15.8c0.5-0.8,1.3-1.1,2.2-1.1l9,0c0.6,0,1.2,0.2,1.7,0.6
				c0.6,0.5,1,1.2,1,2.1v42.6c0,0.7-0.3,1.3-0.8,1.9C78.7,75.7,78,76,77.3,76h-8.6c-0.7,0-1.4-0.3-1.9-0.8S66,74,66,73.3V53.7
				c0-0.3-0.2-0.5-0.5-0.6s-0.5,0-0.7,0.2L54.5,68.1c-0.1,0.2-0.3,0.3-0.5,0.3c-0.3,0-0.4-0.1-0.6-0.3L43.2,53.3z"/>
			<path d="M100,69.4c-0.3,0-0.5,0.2-0.6,0.4l-1.8,4.6c-0.4,1.2-1.3,1.7-2.5,1.7h-8.6c-0.9,0-1.7-0.4-2.2-1.2
				c-0.5-0.8-0.6-1.6-0.3-2.5l16.7-42.6c0.4-1.1,1.3-1.7,2.5-1.7h12c1.2,0,2.1,0.6,2.5,1.7l16.2,42.6c0.3,0.9,0.3,1.7-0.3,2.5
				c-0.5,0.8-1.3,1.2-2.2,1.2h-7.7c-1.3,0-2.2-0.6-2.6-1.8l-1.8-4.8c-0.1-0.3-0.3-0.4-0.6-0.4H100V69.4z M109.9,46.8
				c-0.1-0.3-0.3-0.4-0.6-0.4c-0.3,0-0.5,0.1-0.6,0.4l-3.3,8.3c-0.1,0.2,0,0.4,0.1,0.6c0.1,0.2,0.3,0.3,0.5,0.3h6.4
				c0.2,0,0.4-0.1,0.5-0.3s0.2-0.4,0.1-0.6L109.9,46.8z"/>
			<path d="M152.2,63.7c-0.1,0.1-0.2,0.3-0.2,0.5v9.2c0,0.7-0.3,1.3-0.8,1.9c-0.5,0.5-1.1,0.8-2,0.8h-8.4c-0.7,0-1.3-0.3-2-0.8
				c-0.5-0.5-0.8-1.2-0.8-1.9V30.7c0-0.7,0.3-1.4,0.8-1.9c0.5-0.5,1.2-0.8,2-0.8h8.4c0.7,0,1.5,0.3,2,0.8c0.5,0.5,0.8,1.1,0.8,1.9
				v11.7c0,0.3,0.1,0.5,0.4,0.6c0.3,0.1,0.5,0.1,0.7-0.2l13.1-13.8c0.5-0.6,1.2-0.9,2.1-0.9h11.3c1.1,0,2.1,0.5,2.5,1.6
				c0.5,1.1,0.3,2-0.5,2.9l-13.5,14.2c-0.2,0.3-0.3,0.5-0.1,0.8L183.1,72c0.5,0.9,0.5,1.8,0,2.7c-0.5,0.9-1.3,1.3-2.4,1.3H171
				c-1,0-1.9-0.4-2.4-1.3l-10.1-16.4c-0.1-0.2-0.3-0.3-0.5-0.3c-0.2,0-0.4,0-0.6,0.2L152.2,63.7z"/>
			<path d="M225.3,62c0.7,0,1.4,0.3,1.9,0.7c0.5,0.5,0.8,1.1,0.8,1.8v8.8c0,0.7-0.3,1.3-0.8,1.9c-0.5,0.5-1.1,0.8-1.9,0.8h-35.7
				c-0.7,0-1.4-0.3-1.9-0.8c-0.5-0.5-0.8-1.2-0.8-1.9V30.7c0-0.7,0.3-1.4,0.8-1.9c0.5-0.5,1.2-0.8,1.9-0.8l35.7,0
				c0.6,0,1.2,0.2,1.7,0.6c0.6,0.5,1,1.1,1,2v7.9c0,0.7-0.3,1.4-0.8,1.8c-0.5,0.5-1.2,0.7-1.9,0.7h-24.6c-0.4,0-0.7,0.2-0.7,0.7v3.6
				c0,0.4,0.3,0.7,0.7,0.7h16.5c0.7,0,1.5,0.3,2,0.8c0.5,0.5,0.8,1.2,0.8,2v5.5c0,0.6-0.2,1.2-0.6,1.7c-0.6,0.6-1.2,1-2.2,1h-16.5
				c-0.4,0-0.7,0.2-0.7,0.6v3.7c0,0.4,0.3,0.7,0.7,0.7L225.3,62L225.3,62z"/>
			<path d="M248.7,64c-0.4,0-0.7,0.2-0.7,0.7v8.6c0,0.7-0.3,1.3-0.8,1.9c-0.5,0.5-1.1,0.8-2,0.8h-8.4c-0.7,0-1.5-0.3-2-0.8
				c-0.5-0.5-0.8-1.2-0.8-1.9V30.7c0-0.7,0.3-1.4,0.8-1.9c0.5-0.5,1.2-0.8,1.9-0.8h20.5c5,0,9.3,1.8,12.8,5.3
				c3.6,3.5,5.4,7.8,5.4,12.7c0,3.2-0.8,6.3-2.4,9c-1.6,2.7-3.7,4.9-6.4,6.5l6.3,10.6c0.5,0.9,0.6,1.8,0,2.7
				c-0.5,0.9-1.3,1.3-2.3,1.3h-8.7c-1,0-1.8-0.4-2.3-1.3l-6.2-10.4c-0.1-0.2-0.3-0.3-0.6-0.3H248.7L248.7,64z M248.7,42
				c-0.4-1-0.7-0.3-0.7-0.3v7.6c0,0.4,0.3,0.7,0.7,0.7h9.1c1.3,0,2.4-0.5,3.3-1.4c0.9-1,1.4-2,1.3-3.3c0-1.3-0.5-2.3-1.4-3.1
				c-0.9-0.9-1.9-1.3-3.2-1.3L248.7,42L248.7,42z"/>
		</g>
	</g>
</g>
<g id="Newsletter">
	<g>
		<path d="M-914-2261h-160c-30.9,0-56-25.1-56-56l0,0c0-30.9,25.1-56,56-56h160c30.9,0,56,25.1,56,56l0,0
			C-858-2286.1-883.1-2261-914-2261z"/>
		<g>
			<text transform="matrix(1 0 0 1 -1069.5591 -2302.3169)" style="fill:#FFFFFF; font-family:'Manteiga-Gorda'; font-size:40px;">Submit</text>
		</g>
	</g>
	<g>
		<path class="st7" d="M-666-2442h-656c-30.9,0-56-25.1-56-56l0,0c0-30.9,25.1-56,56-56h656c30.9,0,56,25.1,56,56l0,0
			C-610-2467.1-635.1-2442-666-2442z"/>
		<text transform="matrix(1 0 0 1 -1169.2161 -2483.3169)" style="font-family:'GillSansNova-UltraLight'; font-size:44.9974px;">example@email.com</text>
	</g>
	
		<image style="overflow:visible;" width="512" height="512" xlink:href="../../../../../Desktop/Wittle - Website Design/Assets Game/Pillow.PNG"  transform="matrix(0.7148 0 0 0.7148 -1906 -2855)">
	</image>
	<text transform="matrix(1 0 0 1 -1184.0317 -2161.1348)" style="font-family:'GillSansNova-UltraLight'; font-size:30px;">No spam, just the important stuff!</text>
	
		<image style="overflow:visible;" width="512" height="512" xlink:href="../../../../../Desktop/Wittle - Website Design/Assets Game/Grossdrink.PNG"  transform="matrix(0.7626 0.2259 -0.2259 0.7626 -372.3381 -2616)">
	</image>
	<rect x="-1674.5" y="-3006" style="fill:none;" width="1361" height="78"/>
	<text transform="matrix(1 0 0 1 -1273.2666 -2939.4004)" style="font-family:'Manteiga-Gorda'; font-size:90px;">Be Involved</text>
	<rect x="-1368" y="-2857.4" style="fill:none;" width="748.1" height="351.4"/>
	<text transform="matrix(1 0 0 1 -1354.7356 -2809.6201)"><tspan x="0" y="0" style="font-family:'GillSansNova-UltraLight'; font-size:70px;">Wittle is just getting started. </tspan><tspan x="-5.8" y="84" style="font-family:'GillSansNova-UltraLight'; font-size:70px;">Stay up to date as we grow </tspan><tspan x="215.3" y="168" style="font-family:'GillSansNova-UltraLight'; font-size:70px;">and evolve.</tspan></text>
</g>
<g id="Social">
	<g>
		<path class="st8" d="M293-1619.2c-637.6-311.3-1334.3-413.5-2008.8-294.7c-92.9,16.4-190.1,39.5-262.7,117.1
			c-41.1,43.9-71.4,102.3-100,160.7c-55.6,113.5-107.9,232.5-131.6,363.7c-33.2,183.7-5.6,384.7,74.3,541.9
			c30.9,60.8,70.6,116.4,121.3,146.8c47.2,28.3,100.4,32.9,152.2,37C-1262-499.6-642.1-472.7-78.6-747.2
			C8.3-789.6,95.6-841,159.7-928.7c125.3-171.3,133.1-453.7,133.1-690.7"/>
	</g>
	<g>
		<defs>
			<path id="SVGID_4_" d="M293-1619.2c-637.6-311.3-1334.3-413.5-2008.8-294.7c-92.9,16.4-190.1,39.5-262.7,117.1
				c-41.1,43.9-71.4,102.3-100,160.7c-55.6,113.5-107.9,232.5-131.6,363.7c-33.2,183.7-5.6,384.7,74.3,541.9
				c30.9,60.8,70.6,116.4,121.3,146.8c47.2,28.3,100.4,32.9,152.2,37C-1262-499.6-642.1-472.7-78.6-747.2
				C8.3-789.6,95.6-841,159.7-928.7c125.3-171.3,133.1-453.7,133.1-690.7"/>
		</defs>
		<clipPath id="SVGID_5_">
			<use xlink:href="#SVGID_4_"  style="overflow:visible;"/>
		</clipPath>
		<g transform="matrix(1 0 0 1 0 0)" style="clip-path:url(#SVGID_5_);">
			
				<image style="overflow:visible;" width="1080" height="1091" xlink:href="../../../../../Desktop/Wittle - Website Design/Assets Game/Brian-Standing.png"  transform="matrix(1.2392 0 0 1.2392 -2223 -1869)">
			</image>
		</g>
	</g>
	
		<text transform="matrix(1 0 0 1 -581.0117 -841.1953)" style="fill:#FFFFFF; font-family:'FontAwesome5Brands-Regular'; font-size:141.0112px;"></text>
	
		<text transform="matrix(1 0 0 1 -815.0117 -841.1953)" style="fill:#FFFFFF; font-family:'FontAwesome5Brands-Regular'; font-size:141.0112px;"></text>
	
		<text transform="matrix(1 0 0 1 -1050.1982 -841.1953)" style="fill:#FFFFFF; font-family:'FontAwesome5Brands-Regular'; font-size:141.0112px;"></text>
	<rect x="-1059" y="-1651.2" style="fill:none;" width="650" height="303.5"/>
	<text transform="matrix(1 0 0 1 -954.6553 -1584.3506)"><tspan x="0" y="0" style="fill:#FFFFFF; font-family:'FeltTipRoman-Heavy'; font-size:110px;">Keep the </tspan><tspan x="-89.5" y="110" style="fill:#FFFFFF; font-family:'FeltTipRoman-Heavy'; font-size:110px;">Conversation </tspan><tspan x="92.2" y="220" style="fill:#FFFFFF; font-family:'FeltTipRoman-Heavy'; font-size:110px;">Going</tspan></text>
	<g>
		
			<text transform="matrix(1 0 0 1 -963.6797 -1116.1211)" style="fill:#FFFFFF; font-family:'GillSansNova-UltraLight'; font-size:170px;">#wittle</text>
	</g>
</g>
<g id="Contribute">
	<g>
		<path class="st9" d="M-2089.8-4541.6c79.4,58.1,189.6,81.8,296.8,88.8c107.2,6.9,215.2-0.8,322.5,4
			c115.4,5.2,229.7,25.1,337.3,58.7c200.6,62.6,377.8,172.2,586.8,214c287.2,57.4,616.4-16.6,869.3,106.8
			c66.6,32.5,124.8,79,153.1,137.2c42,86.3,13.5,183.5-21.3,271.8c-46.9,119.3-104.5,235.8-172.3,348.5
			c-38.5,64-81.4,128-145.7,176.9c-167,127.2-433.6,121.1-653,64.9c-104.2-26.6-205.2-62.7-312.9-78.1
			c-159.2-22.8-322.6,0.9-480.5,28.7c-157.9,27.8-317.3,60.1-478.8,54.4s-329.5-55.8-422.5-161.9c-38.2-43.6-61.9-94.1-84.4-144.2
			c-77.6-172.4-147.3-348.5-174.5-530.5c-27.2-182-10-371.4,80.7-539.6c18.4-34.2,40.9-68.5,77.8-91.1
			c66.1-40.6,138.7-18.4,221.3-9.5"/>
	</g>
	<rect x="-1389" y="-3832.4" style="fill:none;" width="790" height="176.4"/>
	<text transform="matrix(1 0 0 1 -1322.608 -3784.6318)"><tspan x="0" y="0" style="font-family:'GillSansNova-UltraLight'; font-size:70px;">We’re looking for stories </tspan><tspan x="-2.2" y="84" style="font-family:'Manteiga-Gorda'; font-size:70px;">about depression. </tspan></text>
	<path d="M-809-3493h-370c-35.2,0-64-28.8-64-64l0,0c0-35.2,28.8-64,64-64h370c35.2,0,64,28.8,64,64l0,0
		C-745-3521.8-773.8-3493-809-3493z"/>
	<circle cx="-311" cy="-3732" r="151"/>
	<circle cx="-1692" cy="-3591" r="151"/>
	<g>
		<text transform="matrix(1 0 0 1 -1114.8179 -3540.3169)" style="fill:#FFFFFF; font-family:'Manteiga-Gorda'; font-size:40px;">Learn More</text>
	</g>
</g>
<g id="Games__x26__Video">
	<g id="Video">
		<rect x="-902" y="-8001" width="621" height="621"/>
		
			<text transform="matrix(1 0 0 1 -391.4258 -8018.5195)" style="font-family:'FontAwesome5Brands-Regular'; font-size:104.4001px;"></text>
		
			<image style="overflow:visible;" width="1080" height="1091" xlink:href="../../../../../Desktop/Wittle - Website Design/Assets Game/sitting-down.JPG"  transform="matrix(0.5316 0 0 0.5316 -879 -7979)">
		</image>
	</g>
	<g id="Game">
		<rect x="-1682" y="-8001" width="621" height="621"/>
		<g>
			<defs>
				<rect id="SVGID_6_" x="-1663" y="-7982" width="583" height="583"/>
			</defs>
			<clipPath id="SVGID_7_">
				<use xlink:href="#SVGID_6_"  style="overflow:visible;"/>
			</clipPath>
			<g style="clip-path:url(#SVGID_7_);">
				
					<image style="overflow:visible;" width="1920" height="1200" xlink:href="../../../../../Desktop/Wittle - Website Design/Assets Game/Drift-Desktop-Game.png"  transform="matrix(0.8665 0 0 0.8665 -2202.8147 -8326.8633)">
				</image>
			</g>
		</g>
		<text transform="matrix(1 0 0 1 -1682.4258 -8018.5195)" style="font-family:'FontAwesome5Pro-Regular'; font-size:104.4001px;"></text>
		
			<text transform="matrix(1 0 0 1 -708.3516 -7576.2891)" class="st0" style="font-family:'FontAwesome5Pro-Regular'; font-size:308.5664px;"></text>
		<path class="st0" d="M-1397.4-7830.8c-8.8,0-15.9,7.1-15.9,15.9s7.1,15.9,15.9,15.9c8.8,0,15.9-7.1,15.9-15.9
			S-1388.6-7830.8-1397.4-7830.8z M-1254.3-7640h-116.6v-85.9c35.9-5.2,63.6-35.8,63.6-73.1c0-41-33.2-74.2-74.2-74.2
			s-74.2,33.2-74.2,74.2c0,37.3,27.7,67.9,63.6,73.1v85.9h-53v-10.6c0-5.9-4.7-10.6-10.6-10.6h-21.2c-5.9,0-10.6,4.7-10.6,10.6v10.6
			h-21.2c-11.7,0-21.2,9.5-21.2,21.2v63.6c0,11.7,9.5,21.2,21.2,21.2h254.4c11.7,0,21.2-9.5,21.2-21.2v-63.6
			C-1233.1-7630.5-1242.6-7640-1254.3-7640z M-1434.5-7799c0-29.3,23.7-53,53-53s53,23.7,53,53c0,29.3-23.7,53-53,53
			C-1410.8-7746-1434.5-7769.7-1434.5-7799z M-1254.3-7555.2h-254.4v-63.6h254.4V-7555.2z"/>
	</g>
	<g id="About">
		<rect x="-902" y="-7336" style="fill:none;" width="621" height="174"/>
		<text transform="matrix(1 0 0 1 -815.3379 -7306.4004)" style="font-family:'Manteiga-Gorda'; font-size:40px;">Short animated story</text>
		<rect x="-1682" y="-7336" style="fill:none;" width="621" height="174"/>
		<text transform="matrix(1 0 0 1 -1595.2979 -7306.4004)" style="font-family:'Manteiga-Gorda'; font-size:40px;">Casual browser game</text>
		<rect x="-1682" y="-7249.4" style="fill:none;" width="621" height="338.4"/>
		<text transform="matrix(1 0 0 1 -1667.5596 -7201.6201)"><tspan x="0" y="0" style="font-family:'GillSansNova-UltraLight'; font-size:70px;">Help Brian through his </tspan><tspan x="51.7" y="84" style="font-family:'GillSansNova-UltraLight'; font-size:70px;">day by navigate his </tspan><tspan x="54.9" y="168" style="font-family:'GillSansNova-UltraLight'; font-size:70px;">disembodied head </tspan><tspan x="12.4" y="252" style="font-family:'GillSansNova-UltraLight'; font-size:70px;">around lifes obstacles. </tspan></text>
		<rect x="-905" y="-7249.4" style="fill:none;" width="621" height="338.4"/>
		<text transform="matrix(1 0 0 1 -890.5596 -7201.6201)"><tspan x="0" y="0" style="font-family:'GillSansNova-UltraLight'; font-size:70px;">Help Brian through his </tspan><tspan x="51.7" y="84" style="font-family:'GillSansNova-UltraLight'; font-size:70px;">day by navigate his </tspan><tspan x="54.9" y="168" style="font-family:'GillSansNova-UltraLight'; font-size:70px;">disembodied head </tspan><tspan x="12.4" y="252" style="font-family:'GillSansNova-UltraLight'; font-size:70px;">around lifes obstacles. </tspan></text>
		<path d="M-1244-6759h-248c-31.5,0-57-25.5-57-57l0,0c0-31.5,25.5-57,57-57h248c31.5,0,57,25.5,57,57l0,0
			C-1187-6784.5-1212.5-6759-1244-6759z"/>
		<rect x="-1386" y="-6830" style="fill:none;" width="169" height="54"/>
		<text transform="matrix(1 0 0 1 -1348.5195 -6800.4004)" style="fill:#FFFFFF; font-family:'Manteiga-Gorda'; font-size:40px;">Play</text>
		
			<text transform="matrix(1 0 0 1 -1507.3516 -6779.3301)" style="fill:#FFFFFF; font-family:'FontAwesome5Pro-Regular'; font-size:94.6813px;"></text>
		<path d="M-477-6759h-246c-31.5,0-57-25.5-57-57l0,0c0-31.5,25.5-57,57-57h246c31.5,0,57,25.5,57,57l0,0
			C-420-6784.5-445.5-6759-477-6759z"/>
		<rect x="-618" y="-6830" style="fill:none;" width="169" height="54"/>
		<text transform="matrix(1 0 0 1 -603.5391 -6800.4004)" style="fill:#FFFFFF; font-family:'Manteiga-Gorda'; font-size:40px;">Watch</text>
		<g>
			
				<text transform="matrix(1 0 0 1 -737.3516 -6780.3301)" style="fill:#FFFFFF; font-family:'FontAwesome5Brands-Regular'; font-size:94.6813px;"></text>
		</g>
	</g>
</g>
<g id="Masthead">
	<rect x="-1354" y="-8315.4" style="fill:none;" width="716" height="125.4"/>
	<text transform="matrix(1 0 0 1 -1320.3726 -8267.6201)" style="font-family:'GillSansNova-UltraLight'; font-size:70px;">Stories about depression</text>
	<text transform="matrix(1 0 0 1 -1354.0002 -8375.8496)" style="font-family:'Manteiga-Gorda'; font-size:213.9071px;">Wittle</text>
</g>
<g id="Nav">
	<path d="M-128.5-8769h-121c-17.3,0-31.5-14.2-31.5-31.5l0,0c0-17.3,14.2-31.5,31.5-31.5h121c17.3,0,31.5,14.2,31.5,31.5l0,0
		C-97-8783.2-111.2-8769-128.5-8769z"/>
	<text transform="matrix(1 0 0 1 -1758.8574 -8793.1426)" style="font-family:'Roboto-Black'; font-size:20px;">Get Help</text>
	<text transform="matrix(1 0 0 1 -1619.8574 -8793.1426)" style="font-family:'Roboto-Black'; font-size:20px;">Stories</text>
	<text transform="matrix(1 0 0 1 -219.8574 -8793.1426)" style="fill:#FFFFFF; font-family:'Roboto-Black'; font-size:20px;">Contribute</text>
	<text transform="matrix(1 0 0 1 -1874.8574 -8793.1426)" style="font-family:'Roboto-Black'; font-size:20px;">About</text>
	
		<text transform="matrix(1 0 0 1 -262.3027 -8786.1016)" style="fill:#FFFFFF; font-family:'FontAwesome5Pro-Regular'; font-size:37.737px;"></text>
</g>
<g id="PRESS_IMAGE_1:1" class="st2">
	<rect x="661" y="-4303" class="st10" width="1350" height="1217"/>
	
		<image style="display:inline;overflow:visible;" width="588" height="656" xlink:href="../../../../../Desktop/Wittle - Website Design/Assets Game/Head-Floating.png"  transform="matrix(0.7534 0 0 0.7534 1347 -4271)">
	</image>
	
		<image style="display:inline;overflow:visible;" width="565" height="327" xlink:href="../../../../../Desktop/Wittle - Website Design/Assets Game/Driftt-Logo.png"  transform="matrix(1.245 0 0 1.245 985 -3980)">
	</image>
	
		<image style="display:inline;overflow:visible;" width="398" height="485" xlink:href="../../../../../Desktop/Wittle - Website Design/Assets Game/Body.png"  transform="matrix(0.8719 0 0 0.8719 885 -3573.895)">
	</image>
	
		<image style="display:inline;overflow:visible;" width="512" height="512" xlink:href="../../../../../Desktop/Wittle - Website Design/Assets Game/Barkdog2.PNG"  transform="matrix(0.826 0.16 -0.16 0.826 1545.8685 -3668.2039)">
	</image>
	
		<image style="display:inline;overflow:visible;" width="512" height="512" xlink:href="../../../../../Desktop/Wittle - Website Design/Assets Game/Burner2.PNG"  transform="matrix(0.5756 0.1786 -0.1842 0.5935 795.2988 -4249)">
	</image>
	<g>
		<rect x="1429.9" y="-3388" class="st3" width="195" height="195"/>
		
			<text transform="matrix(1 0 0 1 1475.7949 -3287.6367)" class="st10" style="font-family:'FontAwesome5Pro-Regular'; font-size:82.0341px;"></text>
		
			<text transform="matrix(1 0 0 1 1479.0107 -3231.6504)" class="st10" style="font-family:'GillSansNova-UltraLight'; font-size:45.3698px;">PLAY</text>
	</g>
	<g>
		<rect x="1650" y="-3388" class="st3" width="195" height="195"/>
		
			<text transform="matrix(1 0 0 1 1707.0566 -3288.0967)" class="st10" style="font-family:'FontAwesome5Brands-Regular'; font-size:75.8224px;"></text>
		
			<text transform="matrix(1 0 0 1 1667.2852 -3231.4688)" class="st10" style="font-family:'GillSansNova-UltraLight'; font-size:45.3698px;">WATCH</text>
	</g>
</g>
<g id="PRESS_IMAGE_16:9" class="st2">
	<rect x="1437" y="-8912" class="st10" width="1985" height="1228"/>
	
		<image style="display:inline;overflow:visible;" width="588" height="656" xlink:href="../../../../../Desktop/Wittle - Website Design/Assets Game/Head-Floating.png"  transform="matrix(0.8997 0 0 0.8997 2350 -8896)">
	</image>
	
		<image style="display:inline;overflow:visible;" width="565" height="327" xlink:href="../../../../../Desktop/Wittle - Website Design/Assets Game/Driftt-Logo.png"  transform="matrix(1.245 0 0 1.245 2081.7737 -8590)">
	</image>
	
		<image style="display:inline;overflow:visible;" width="398" height="485" xlink:href="../../../../../Desktop/Wittle - Website Design/Assets Game/Body.png"  transform="matrix(1.0603 0 0 1.0603 1936 -8189)">
	</image>
	
		<image style="display:inline;overflow:visible;" width="512" height="512" xlink:href="../../../../../Desktop/Wittle - Website Design/Assets Game/Barkdog2.PNG"  transform="matrix(0.8526 0.1652 -0.1652 0.8526 2532.5713 -8233)">
	</image>
	
		<image style="display:inline;overflow:visible;" width="512" height="512" xlink:href="../../../../../Desktop/Wittle - Website Design/Assets Game/Burner2.PNG"  transform="matrix(0.5196 0.1612 -0.1663 0.5358 1913.1279 -8873)">
	</image>
	
		<image style="display:inline;overflow:visible;" width="512" height="512" xlink:href="../../../../../Desktop/Wittle - Website Design/Assets Game/Razor2.PNG"  transform="matrix(0.5132 0.1198 -0.1198 0.5132 3074.3564 -8678)">
	</image>
	
		<image style="display:inline;overflow:visible;" width="512" height="512" xlink:href="../../../../../Desktop/Wittle - Website Design/Assets Game/Photo2.PNG"  transform="matrix(0.584 0 0 0.584 1473 -8525)">
	</image>
	
		<image style="display:inline;overflow:visible;" width="512" height="512" xlink:href="../../../../../Desktop/Wittle - Website Design/Assets Game/Pillow.PNG"  transform="matrix(0.6419 0 0 0.6419 3093 -8025)">
	</image>
	
		<image style="display:inline;overflow:visible;" width="512" height="512" xlink:href="../../../../../Desktop/Wittle - Website Design/Assets Game/Grossdrink.PNG"  transform="matrix(0.5071 0.3177 -0.3177 0.5071 1620.6666 -8164.1689)">
	</image>
</g>
</svg>
