<?xml version="1.0" encoding="utf-8"?>
<!-- Generator: Adobe Illustrator 23.1.0, SVG Export Plug-In . SVG Version: 6.00 Build 0)  -->
<svg version="1.1" xmlns="http://www.w3.org/2000/svg" xmlns:xlink="http://www.w3.org/1999/xlink" x="0px" y="0px"
	 viewBox="0 0 371 165" style="enable-background:new 0 0 371 165;" xml:space="preserve">
<style type="text/css">
	.st0{fill:#EAFF22;}
	.st1{fill:url(#SVGID_1_);}
	.st2{display:none;}
	.st3{display:inline;}
	.st4{enable-background:new    ;}
	.st5{fill:#231F20;}
	.st6{clip-path:url(#SVGID_3_);fill:#231F20;}
	.st7{fill:none;stroke:#000000;stroke-width:2;stroke-miterlimit:10;}
	.st8{fill:#32BAEA;}
	.st9{fill:#41F797;}
</style>
<g id="BG">
</g>
<g id="The_Party">
</g>
<g id="Drift">
</g>
<g id="Partners">
	<g class="st2">
		<g id="Tall_White_2_" class="st3">
			<circle class="st2" cx="183" cy="83.5" r="152.6"/>
			<g class="st4">
				<path d="M92.3,87.9c-0.9,0.2-2.2,0.5-4,0.7c-1.8,0.2-3.6,0.3-5.4,0.3c-1.8,0-3.4-0.1-4.7-0.4c-1.4-0.3-2.5-0.8-3.4-1.5
					c-0.9-0.7-1.6-1.7-2.1-2.9c-0.5-1.2-0.7-2.9-0.7-4.9V24.3c0-1.6,0.4-2.9,1.3-3.8c0.9-0.9,2.1-1.6,3.7-2.2c2.6-0.9,5.7-1.6,9-2
					c3.4-0.4,6.8-0.6,10.2-0.6c10.7,0,18.9,2.3,24.6,6.9c5.7,4.6,8.5,10.8,8.5,18.7c0,3.8-0.6,7.3-1.8,10.3c-1.2,3.1-3,5.7-5.4,7.9
					c-2.4,2.2-5.4,3.9-9,5.1c-3.6,1.2-7.8,1.8-12.5,1.8h-8.3V87.9z M98.3,50.4c3.3,0,5.8-0.8,7.5-2.3c1.7-1.5,2.6-3.8,2.6-6.9
					c0-3-0.9-5.2-2.7-6.8c-1.8-1.6-4.5-2.4-8-2.4c-1.2,0-2.3,0-3.1,0.1c-0.8,0-1.7,0.1-2.5,0.3v18.1H98.3z"/>
				<path d="M150.5,88.7c-3.3,0-6-1-7.9-2.9c-1.9-1.9-2.9-4.6-2.9-7.9V17.5c0.9-0.2,2.2-0.4,4.1-0.6c1.9-0.3,3.7-0.4,5.4-0.4
					c1.8,0,3.4,0.1,4.7,0.4c1.4,0.3,2.5,0.8,3.4,1.5c0.9,0.7,1.6,1.7,2.1,2.9c0.5,1.2,0.7,2.9,0.7,4.9v46.1h26.7
					c0.5,0.9,1,2,1.5,3.4c0.5,1.4,0.7,2.9,0.7,4.5c0,3.1-0.7,5.3-2,6.6c-1.3,1.3-3.1,1.9-5.2,1.9H150.5z"/>
				<path d="M215.7,19.8c1.3-0.8,3.3-1.5,6-2.2c2.7-0.7,5.4-1,8.1-1c3.9,0,7.3,0.6,10.3,1.7c3,1.1,4.9,2.9,5.8,5.3
					c1.4,4,2.9,8.7,4.5,14.1s3.3,10.9,4.9,16.6c1.6,5.7,3.2,11.4,4.8,16.9c1.6,5.6,2.9,10.5,4.1,14.8c-0.9,1.1-2.3,2-4.2,2.6
					c-1.9,0.7-4.1,1-6.6,1c-1.9,0-3.4-0.2-4.7-0.5c-1.3-0.3-2.3-0.8-3.1-1.4c-0.8-0.6-1.5-1.4-2-2.4c-0.5-1-1-2.2-1.3-3.5l-2.1-8
					h-21.1c-0.6,2.3-1.2,4.7-1.9,7.2c-0.6,2.5-1.2,4.9-1.9,7.2c-1.1,0.4-2.2,0.7-3.4,1c-1.2,0.3-2.7,0.4-4.4,0.4c-4,0-6.9-0.7-8.8-2
					c-1.9-1.4-2.9-3.2-2.9-5.7c0-1.1,0.2-2.2,0.5-3.3c0.3-1.1,0.7-2.4,1-3.8c0.5-2.1,1.3-4.7,2.3-7.8c1-3.1,2-6.5,3.2-10.1
					c1.2-3.6,2.4-7.3,3.7-11.1c1.3-3.8,2.6-7.4,3.7-10.8c1.2-3.4,2.2-6.4,3.2-9C214.4,23.2,215.1,21.2,215.7,19.8z M229.7,34.8
					c-1.1,3.3-2.3,6.9-3.7,10.9c-1.4,4-2.6,8.1-3.7,12.2h14.5c-1.1-4.2-2.2-8.3-3.3-12.3c-1.1-4-2.2-7.6-3.1-10.8H229.7z"/>
				<path d="M294.1,87.9c-0.9,0.2-2.2,0.5-4,0.7c-1.8,0.2-3.6,0.3-5.4,0.3c-1.8,0-3.4-0.1-4.7-0.4c-1.4-0.3-2.5-0.8-3.4-1.5
					c-0.9-0.7-1.6-1.7-2.1-2.9c-0.5-1.2-0.7-2.9-0.7-4.9V17.7c0.9-0.2,2.2-0.4,4.1-0.6c1.9-0.3,3.7-0.4,5.4-0.4
					c1.8,0,3.4,0.1,4.7,0.4c1.4,0.3,2.5,0.8,3.4,1.5c0.9,0.7,1.6,1.7,2.1,2.9c0.5,1.2,0.7,2.9,0.7,4.9V87.9z"/>
			</g>
			<g class="st4">
				<path d="M95.4,126.9H75.6v19h-1.4v-38.7h24v1.4H75.6v16.7h19.8V126.9z"/>
				<path d="M121.1,134.4h-18.9l-4.3,11.6h-1.6l14.5-38.7h1.8l14.5,38.7h-1.6L121.1,134.4z M102.7,132.9h17.9l-8.9-24L102.7,132.9z"
					/>
				<path d="M159.5,134.1c-0.4,4-1.7,7-4.1,9.2c-2.4,2.1-5.6,3.2-9.7,3.2c-2.7,0-5.2-0.7-7.3-2.1c-2.1-1.4-3.8-3.4-4.9-5.9
					c-1.2-2.6-1.8-5.5-1.8-8.8v-6c0-3.3,0.6-6.2,1.7-8.8c1.2-2.6,2.8-4.6,4.9-6c2.1-1.4,4.6-2.1,7.3-2.1c4,0,7.3,1.1,9.6,3.2
					s3.8,5.2,4.1,9.1h-1.4c-0.4-3.6-1.6-6.3-3.7-8.1s-4.9-2.8-8.6-2.8c-3.8,0-6.8,1.4-9.1,4.3c-2.3,2.8-3.5,6.6-3.5,11.4v5.7
					c0,3,0.5,5.7,1.5,8.1c1,2.3,2.5,4.2,4.4,5.5c1.9,1.3,4.1,2,6.6,2c3.7,0,6.6-0.9,8.7-2.7c2.1-1.8,3.3-4.6,3.7-8.2H159.5z"/>
				<path d="M193.4,108.7h-14.1v37.2h-1.4v-37.2h-14.1v-1.4h29.6V108.7z"/>
				<path d="M226.9,129.5c0,3.3-0.6,6.3-1.8,8.9c-1.2,2.6-2.9,4.6-5.1,6c-2.2,1.4-4.8,2.1-7.6,2.1c-4.4,0-7.9-1.5-10.6-4.6
					c-2.7-3.1-4-7.3-4-12.5v-5.6c0-3.3,0.6-6.3,1.8-8.9c1.2-2.6,2.9-4.6,5.1-6c2.2-1.4,4.8-2.1,7.6-2.1c2.9,0,5.4,0.7,7.7,2.1
					c2.2,1.4,3.9,3.4,5.1,6c1.2,2.6,1.8,5.5,1.8,8.9V129.5z M225.4,123.6c0-4.7-1.2-8.4-3.6-11.2c-2.4-2.8-5.6-4.2-9.6-4.2
					c-4,0-7.2,1.4-9.5,4.2c-2.4,2.8-3.6,6.6-3.6,11.5v5.7c0,3.1,0.5,5.8,1.6,8.2c1.1,2.4,2.6,4.2,4.6,5.5c2,1.3,4.3,1.9,7,1.9
					c4,0,7.2-1.4,9.6-4.2c2.4-2.8,3.5-6.7,3.5-11.5V123.6z"/>
				<path d="M250.4,129.4H237v16.5h-1.4v-38.7h12.3c3.9,0,7,1,9.3,3c2.3,2,3.4,4.7,3.4,8.2c0,2.6-0.8,4.9-2.5,6.9s-3.7,3.2-6.3,3.7
					l10.3,16.5v0.4h-1.5L250.4,129.4z M237,127.9h12.2c3,0,5.4-0.9,7.2-2.7c1.8-1.8,2.7-4.1,2.7-6.8c0-3-1-5.4-3-7.1
					c-2-1.7-4.8-2.6-8.3-2.6H237V127.9z"/>
				<path d="M280.9,129.9l13.5-22.7h1.8l-14.6,24v14.7h-1.4v-14.7l-14.6-24h1.9L280.9,129.9z"/>
			</g>
		</g>
	</g>
	<g class="st2">
		<g class="st3">
			<g>
				<path d="M116.3,86.7c-0.6-4.9-8-1.3-9.4,0.9c-2.7,4.2-4.9,8.6-6.4,13.5c-0.3,1.1-0.5,2-0.6,3.1c-2.7-6.4-2.2-15.1-2-21
					c0.2-5-8.3-1.6-9.7,0.6c-3.5,6.1-5.2,11.9-6.4,18.1c-1.6-6-2-12.7-2.8-16.8c-0.3-1.7-5.5-4.9-6.4-2.5
					c-4.2,9.7-2.2,30.6,7.9,36.9c3.5,2.2,9-0.3,9.6-4.4c0.2-1.6,0.3-3,0.6-4.4c1.6,3.6,3.8,6.9,7.2,9.1c3,1.9,6.8-1.1,8.5-3.5
					c1.1-1.6,1.7-3.1,2.4-4.9c1.3,3.1,3.3,5.8,6.9,7.5c3.6,1.7,11.5-4.6,7.4-7.9C115.2,105.3,117.2,95.2,116.3,86.7z"/>
				<path d="M147.7,81.1c-6.4-2.2-10.8-0.2-13.8,3.9c-0.2-0.5-0.3-0.8-0.5-1.3c-5.5-12.4-7.5-25.3-11.9-37.9c-0.5-1.3-5.8-4.2-6.3-2
					c-5,23.7,11.3,43.4,13.2,65.8c0,1.6,0.2,3.1,0.2,4.4c0.5,5.5,10.4,0.9,10.4-3.6c0-2.8-0.2-5.5-0.5-8.2c0-4.9,0.5-9.9,2.8-13.5
					c-0.2,0.3,2.8,9.3,2.8,11c0.3,4.9,0.2,11.3-5,13.4c-4.9,1.9-6.1,10.2,0.6,8.6c9.4-2.2,14.1-11.3,14.8-20.4
					C155.2,95.4,154.9,83.4,147.7,81.1z"/>
				<path d="M187.4,85.9c-6-1.1-13.4-1.6-19.2,1.1c-0.2,0-0.2-0.2-0.2-0.2c-1.7-1.1-4.4-1.1-6.3-0.2c-0.9,0.5-1.3,1.1-1.3,1.7h-0.2
					c0.2,1.7,0.3,3.5,0.6,5.2c-3.9,7.1-0.2,15.4,2,23.2c1.4,5.3,9.7,0.9,10.4-2.8c0.8-4.2,0-8.5-0.6-12.9c-0.3-1.7-0.3-3.6-0.6-5.7
					c0.6-0.2,1.4-0.3,1.7-0.3c2.5-0.2,5.2,0.3,7.7,1.1C187.7,98.3,194.5,87.3,187.4,85.9z"/>
				<path d="M214.6,107.8c-2,4.2-7.9,5-11.6,3.1c-3.6-1.7-3.5-7.9-3-11c0-0.5,0.2-0.8,0.2-1.3c8-0.3,16.5-3.9,16.2-11.9
					c-0.3-5.3-7.2-7.2-11.3-6.9c-5.8,0.3-9.9,6-12.3,10.7c-0.5,0.8-0.8,1.7-1.1,2.5c-1.7,1.1-2.8,2.5-1.3,3.6
					c-2.4,8-2.4,18.1,4.2,22.9c10.5,7.9,26.9-1.3,30.2-12.6C226.2,101.3,216,104.5,214.6,107.8z M205,87.8c0.8,2.8-0.2,4.1-2.8,3.8
					c-0.2,0-0.2,0-0.3,0c0.2-0.6,0.5-1.1,0.6-1.7C203.1,88.7,203.8,87.5,205,87.8z"/>
				<path d="M273.7,99.6c-5.7,6.1-15.4,14.5-21.5,4.4c-2.5-4.1-3.5-9.1-4.2-14c-0.2-2.4-0.5-4.4-0.8-5.8c-0.2-0.5-0.3-0.8-0.5-1.1
					c-0.6-1.9-3.1-3-6-1.6c-7.9,3.8-12.1,9.4-14,17.9c-1.1,4.9-1.4,17.3,4.6,19.6c6.3,2.5,10.4-0.3,13-5.3c1.4,1.6,3.1,3.1,5.2,4.2
					c11.9,6.4,25.8-7.4,32.4-15.6C286.5,96.6,277.1,95.8,273.7,99.6z M235.8,96.8v2.8c1.6,1.7,1.5,3.5,1.6,5.2v0.5
					C236.4,102.6,236.6,99.6,235.8,96.8z"/>
				<path d="M293.6,84.7c4.9-1.6,9.6-3.1,14-5.3c5.7-2.8,6-13.7-1.6-10.1c-4.7,2.2-9.4,4.2-14.3,6.3c-1.3-6.3-2.8-12.9-6.6-17
					c-1.6-1.7-9-1.4-8.5,1.9c0.9,6.6,2.7,13.2,4.2,19.8c-7.5,3.5-14.8,7.4-21.4,12.7c-5.5,4.6,3.5,6.3,7.1,3.5
					c4.7-3.6,10.4-6.1,16.2-8.2c2.2,8.6,5.8,17.4,4.9,26.4c-0.6,6.1,9.6,2.4,10.5-1.9c1.9-9.3-1.9-18.1-4.2-26.9
					C293.8,85.5,293.6,85,293.6,84.7z"/>
				<path d="M340.3,105.6c-2.4-1.7-5.5-0.2-7.4,1.4c-7.9,6-15.6,1.4-17.4-7.7c-0.2-0.5-0.2-0.9-0.2-1.6c7.9,0.9,17.6-2.5,18.2-10.4
					c0.3-4.2-4.6-7.7-8.2-8.5c-6.6-1.6-12.7,2.8-16.5,7.9c-6.1,8.2-5.5,21.5,2.2,28.4c9.3,8.3,21.8,3.5,29.2-4.7
					C341.4,109.4,341.8,106.8,340.3,105.6z M319.2,87.4c1.6-0.8,5.5-0.2,4.1,2.4c-1.6,2.7-4.6,3.1-7.7,3
					C316.1,90.3,317.2,88.2,319.2,87.4z"/>
				<path d="M50.3,73.8c4.1-1.6,8.3-2.5,13.2-3.5c5.2-1.1,9.7-11.9,2.4-10.4c-4.6,0.9-8.8,1.9-12.7,3.1c-1.1-0.3-2.4,0-4.1,0.9
					c-1.3,0.6-2.4,1.4-3.6,2c-3.9,1.9-7.5,4.2-11.3,7.5c-3.3,3-2.5,7.5,0.3,8.3c-1.3,3.1-2.2,6.3-3,9.6h-0.2c-3,0.6-5.7,2.7-6.4,5.8
					c-0.6,2.5,1.3,5,4.1,4.6c0.5-0.2,0.9-0.2,1.4-0.3c0,3.5,0.2,6.9,0.8,10.1c3.6,19.5,32.5,13.7,35.8-3c1.6-7.4-9.4-4.1-10.5,1.3
					c-1.1,5.2-9.9,4.4-12.7,1.7c-3-3-2.7-8.8-2.5-12.6c9.3-2.5,18.4-6.1,25.4-12.6c5.7-5,0-11.5-5.8-6.4c-5,4.6-11.8,7.1-18.5,9
					C43.7,83.2,46,77.4,50.3,73.8z"/>
			</g>
		</g>
	</g>
	<g>
		<polygon class="st5" points="150.3,79.8 170.1,79.8 170.1,74 158.3,74 158.3,67.6 168.1,67.6 168.1,62.1 158.3,62.1 158.3,56.8 
			170.1,56.8 170.1,51.2 150.3,51.2 150.3,79.8 		"/>
		<polygon class="st5" points="205,74.1 192.7,74.1 192.7,51.2 184.5,51.2 184.5,79.8 205,79.8 205,74.1 		"/>
		<path class="st5" d="M270.4,62.1c-5.5-1.2-7.4-1.4-7.4-3.6c0-2,2.7-2.7,4.3-2.7c2.5,0,5.5,0.6,8.5,2.1l2.2-5.3
			c-3.1-1.7-7.1-2.4-10.9-2.4c-7.6,0-12.6,3.1-12.8,9c-0.2,5.4,4.2,7.5,8.3,8.3c3.9,0.8,7.9,1.5,8,3.8c0.1,2.1-1.9,3.1-5.5,3.1
			c-3.4,0-6.5-1.1-9.7-2.4l-1.9,5.7c3.7,1.6,7.4,2.4,11.3,2.4c5.4,0,9.3-0.8,12.2-3.5c2-1.9,2.7-4.1,2.7-6.2
			C279.5,66.1,276.7,63.5,270.4,62.1L270.4,62.1z"/>
		<polygon class="st5" points="113.9,56.8 122.3,56.8 122.3,79.8 130.4,79.8 130.4,56.8 138.8,56.8 138.8,51.2 113.9,51.2 
			113.9,56.8 		"/>
		<path class="st5" d="M241.1,70.2v-19h-8.4v18.1c0,1.4,0,1.8-0.1,2.4c-0.3,1.7-1.9,2.7-4.6,2.8c-2,0-3.4-0.6-4.1-1.6
			c-0.3-0.5-0.5-1.5-0.5-3V51.2H215v19.7c0,2.7,0.4,4,1.6,5.5c2,2.5,6,3.9,11.4,3.9c0.1,0,0.1,0,0.2,0c0,0,0.1,0,0.1,0
			c7.3,0,11.1-2.8,12.2-5.5C241,73.5,241.1,72.9,241.1,70.2L241.1,70.2z"/>
		<path class="st5" d="M64.8,57.5l5.8-1.4l0.1,0v0l0.1,0c0.5-0.1,0.9-0.2,1.4-0.3c-1.8,1.8-4.1,4-7,6.4c-3.1,2.5-5.3,4-9.8,6.6
			C58.1,64.7,61.4,60.9,64.8,57.5L64.8,57.5z M78.1,46c0.7-0.5,0.9-0.2,0.7,0.4c-0.2,0.5-0.8,2.3-3.3,5.4l-5,1v0l-0.2,0l-1,0.2
			C72.9,49.8,76,47.4,78.1,46L78.1,46z M94.5,71.4l-0.2,0.1c-3.6,2.1-21.1,12.5-32.4,15.6c-5.8,1.6-10.2,0.7-11.9-1.6
			c-0.6-0.8-0.9-1.8-0.9-3c0-2.3,1.1-5.2,3.2-8.4c1.9-1.1,3.7-2.2,5.3-3.2c7.1-4,15-10.5,19.8-16.5c26.7-6.6,40.3-10.5,40.4-10.5
			c0.2,0,0.2-0.2,0.2-0.3c0-0.1-0.2-0.2-0.3-0.2l-37.8,7.5c1.3-2.1,2.1-4,2.2-5.7c0-0.1,0-0.1,0-0.2c0-0.6-0.3-1.3-0.8-1.8
			c-0.5-0.5-1.2-0.8-1.9-0.7C77,42.6,72.8,46,70.5,48c-2.4,2.1-4.7,4.2-6.8,6.2l-42.9,9.2l-1.9,5.2l40.3-9.8
			C55.2,63,52,67,49.3,71.2C38.8,76.8,25.5,82.5,12.2,87l-0.3,0.1L9.3,94l1.5-0.6c8.4-3.2,22.5-9.2,35.2-15.9
			c-0.7,1.9-1.1,3.7-1.1,5.3c0,1.2,0.2,2.3,0.6,3.3c0.8,2,2.4,3.5,4.6,4.4c3.3,1.3,7.7,1.3,12.8-0.2c13-3.9,28.4-16,31.7-18.4
			l0.1-0.1c0.1-0.1,0.1-0.2,0.1-0.3C94.8,71.4,94.6,71.4,94.5,71.4L94.5,71.4z"/>
		<polygon class="st5" points="198.2,126 199.9,126 199.9,111.9 214.6,111.9 214.6,110.3 199.9,110.3 199.9,98.8 216.2,98.8 
			216.2,97.3 198.2,97.3 198.2,126 		"/>
		<path class="st5" d="M233.5,116.5c0,5.1-2.8,8.7-7.4,8.7c-5.6,0-5.9-4.6-5.9-6.8v-13.1h-1.5v12.8c0,2.5,0.1,8.4,7.4,8.4
			c3.2,0,6.4-1.8,7.4-4.9h0.1v4.4h1.5v-20.7h-1.5V116.5L233.5,116.5z"/>
		<path class="st5" d="M248.5,104.9c-3.2,0-6.4,1.8-7.4,4.9H241v-4.4h-1.5V126h1.5v-11.2c0-5.1,2.8-8.7,7.5-8.7
			c5.6,0,5.9,4.6,5.9,6.8V126h1.5v-12.8C255.9,110.7,255.8,104.9,248.5,104.9L248.5,104.9z"/>
		<g>
			<defs>
				<rect id="SVGID_2_" x="9.3" y="30.6" width="347.3" height="105.7"/>
			</defs>
			<clipPath id="SVGID_1_">
				<use xlink:href="#SVGID_2_"  style="overflow:visible;"/>
			</clipPath>
			<path style="clip-path:url(#SVGID_1_);fill:#231F20;" d="M268.7,125.2c-5.3,0-7.7-4.6-7.7-9.5c0-5,2.2-9.5,7.7-9.5
				c5.3,0,7.7,4.7,7.7,9.5C276.4,120.5,273.9,125.2,268.7,125.2L268.7,125.2z M276.4,110L276.4,110c-1.2-3.3-4.3-5.1-7.7-5.1
				c-6.2,0-9.2,4.8-9.2,10.9c0,5.7,2.7,10.8,8.9,10.8c3.7,0,6.2-1.7,7.9-4.9h0.1v4.4h1.5V97.3h-1.5V110L276.4,110z"/>
			<path style="clip-path:url(#SVGID_1_);fill:#231F20;" d="M315,54.3c-1.4,1.3-3.5,3.3-6.6,6.4C291,78.4,287.2,95.9,297.3,113
				c2.5,4.2,9.5,9.8,11.3,11.9v0c0,0,4.6,5.2,2.2,11.4c0,0,4.2-6.7,4.2-6.7c10.2-15.9,19.4-54.4,19.7-83.1
				c1.5,41.5-5.4,64.9-14.2,84.4c30.3-2.5,54.8-38.5,13.6-100.4C329,39.9,325.9,43.8,315,54.3L315,54.3z"/>
		</g>
		<polygon class="st5" points="349,38.2 349.7,38.2 349.7,33.8 351.3,33.8 351.3,33.2 347.4,33.2 347.4,33.8 349,33.8 349,38.2 		
			"/>
		<polygon class="st5" points="355.8,33.2 354.2,37.4 352.7,33.2 351.8,33.2 351.8,38.2 352.4,38.2 352.4,34.1 352.4,34.1 354,38.2 
			354.5,38.2 356,34.1 356,34.1 356,38.2 356.7,38.2 356.7,33.2 355.8,33.2 		"/>
	</g>
	
		<image style="display:none;overflow:visible;" width="1000" height="312" xlink:href="../../../../../Desktop/Wittle - Website Design/Assets Partners/camh-logo-purple-1000.png"  transform="matrix(0.3085 0 0 0.3085 28.7495 35.3738)">
	</image>
</g>
<g id="Newsletter">
</g>
<g id="Social">
</g>
<g id="Contribute">
</g>
<g id="Games__x26__Video">
	<g id="Video">
	</g>
	<g id="Game">
	</g>
	<g id="About">
	</g>
</g>
<g id="Masthead">
</g>
<g id="Nav">
</g>
</svg>
